<?xml version="1.0" encoding="UTF-8" standalone="no"?>
<!DOCTYPE svg PUBLIC "-//W3C//DTD SVG 1.1//EN" "http://www.w3.org/Graphics/SVG/1.1/DTD/svg11.dtd">
<svg width="100%" height="100%" viewBox="0 0 177 24" version="1.1" xmlns="http://www.w3.org/2000/svg" xmlns:xlink="http://www.w3.org/1999/xlink" xml:space="preserve" xmlns:serif="http://www.serif.com/" style="fill-rule:evenodd;clip-rule:evenodd;stroke-linejoin:round;stroke-miterlimit:2;">
    <g transform="matrix(0.1312,0,0,0.1312,45.9008,-1.8896)">
        <path d="M96.396,101.269L176.792,101.269L176.792,181.749C132.39,181.749 96.396,145.717 96.396,101.269Z" style="fill:white;fill-rule:nonzero;"/>
    </g>
    <g transform="matrix(0.1312,0,0,0.1312,45.9008,-1.8896)">
        <path d="M96.396,20.788L176.792,20.788C176.792,65.236 140.797,101.269 96.396,101.269L96.396,20.788Z" style="fill:white;fill-rule:nonzero;"/>
    </g>
    <g transform="matrix(0.1312,0,0,0.1312,45.9008,-1.8896)">
        <path d="M96.396,181.749L16,181.749C16,137.301 51.994,101.269 96.396,101.269L96.396,181.749Z" style="fill:white;fill-rule:nonzero;"/>
    </g>
    <g transform="matrix(0.1312,0,0,0.1312,45.9008,-1.8896)">
        <path d="M277.238,87.339L258.347,64.269L253.274,70.121L253.274,87.339L236.267,87.339L236.267,18.999L253.274,18.999L253.274,46.712L276.223,18.999L297.82,18.999L269.218,51.791L299.318,87.339L277.238,87.339Z" style="fill:white;fill-rule:nonzero;"/>
    </g>
    <g transform="matrix(0.1312,0,0,0.1312,45.9008,-1.8896)">
        <path d="M348.841,62.383C348.841,64.253 348.712,65.768 348.454,66.929L312.459,66.929C313.297,69.38 314.714,71.298 316.711,72.685C318.74,74.071 321.14,74.764 323.91,74.764C326.261,74.764 328.452,74.281 330.481,73.313C332.542,72.346 334.185,71.185 335.409,69.831L345.99,79.02C343.252,82.019 339.934,84.357 336.037,86.034C332.14,87.71 327.936,88.549 323.427,88.549C315.374,88.549 308.659,86.001 303.28,80.907C297.901,75.78 295.211,69.412 295.211,61.802C295.211,56.934 296.371,52.5 298.69,48.502C301.041,44.504 304.278,41.36 308.401,39.07C312.524,36.781 317.098,35.636 322.122,35.636C325.891,35.636 329.418,36.314 332.703,37.668C336.021,39.022 338.855,40.876 341.207,43.23C343.558,45.551 345.41,48.373 346.763,51.694C348.148,55.015 348.841,58.578 348.841,62.383ZM322.026,49.324C319.771,49.324 317.774,50.017 316.035,51.404C314.328,52.758 313.104,54.628 312.363,57.014L331.737,57.014C331.028,54.66 329.804,52.79 328.065,51.404C326.326,50.017 324.313,49.324 322.026,49.324Z" style="fill:white;fill-rule:nonzero;"/>
    </g>
    <g transform="matrix(0.1312,0,0,0.1312,45.9008,-1.8896)">
        <path d="M386.816,36.846L404.692,36.846L381.453,94.884C379.971,98.721 377.684,101.752 374.592,103.977C371.532,106.234 368.118,107.363 364.35,107.363C361.934,107.363 359.389,106.879 356.716,105.912C354.042,104.944 351.739,103.671 349.807,102.091L355.943,89.516C357.65,91.031 359.55,91.789 361.644,91.789C364.06,91.789 365.783,90.628 366.814,88.307L367.683,86.227L348.116,36.846L366.427,36.846L376.622,66.445L386.816,36.846Z" style="fill:white;fill-rule:nonzero;"/>
    </g>
    <g transform="matrix(0.1312,0,0,0.1312,45.9008,-1.8896)">
        <path d="M472.816,36.846L490.306,36.846L472.816,87.339L456.389,87.339L448.079,56.917L439.624,87.339L423.197,87.339L405.804,36.846L423.728,36.846L431.845,66.155L440.155,36.846L456.389,36.846L464.699,66.058L472.816,36.846Z" style="fill:white;fill-rule:nonzero;"/>
    </g>
    <g transform="matrix(0.1312,0,0,0.1312,45.9008,-1.8896)">
        <path d="M517.314,88.549C512.161,88.549 507.49,87.404 503.303,85.115C499.148,82.793 495.895,79.617 493.543,75.587C491.192,71.556 490.016,67.058 490.016,62.093C490.016,57.127 491.192,52.629 493.543,48.599C495.895,44.568 499.148,41.408 503.303,39.119C507.49,36.797 512.161,35.636 517.314,35.636C525.077,35.636 531.567,38.168 536.785,43.23C542.035,48.292 544.66,54.58 544.66,62.093C544.66,69.605 542.035,75.893 536.785,80.955C531.567,86.017 525.077,88.549 517.314,88.549ZM517.314,72.975C520.406,72.975 522.983,71.943 525.045,69.879C527.106,67.784 528.137,65.188 528.137,62.093C528.137,58.965 527.09,56.369 524.996,54.306C522.935,52.21 520.374,51.162 517.314,51.162C514.19,51.162 511.597,52.21 509.535,54.306C507.474,56.369 506.443,58.965 506.443,62.093C506.443,65.22 507.474,67.816 509.535,69.879C511.597,71.943 514.19,72.975 517.314,72.975Z" style="fill:white;fill-rule:nonzero;"/>
    </g>
    <g transform="matrix(0.1312,0,0,0.1312,45.9008,-1.8896)">
        <path d="M581.041,36.023L583.409,36.023L583.409,52.564L581.041,52.564C576.983,52.564 573.842,53.612 571.62,55.708C569.43,57.804 568.335,60.658 568.335,64.269L568.335,87.339L552.342,87.339L552.342,36.846L568.335,36.846L568.335,41.876C571.845,37.974 576.081,36.023 581.041,36.023Z" style="fill:white;fill-rule:nonzero;"/>
    </g>
    <g transform="matrix(0.1312,0,0,0.1312,45.9008,-1.8896)">
        <path d="M624.959,16L641,16L641,87.339L624.959,87.339L624.959,83.18C621.062,86.759 616.376,88.549 610.9,88.549C606.391,88.549 602.284,87.404 598.58,85.115C594.875,82.793 591.977,79.617 589.883,75.587C587.789,71.524 586.742,67.026 586.742,62.093C586.742,57.159 587.789,52.677 589.883,48.647C591.977,44.584 594.875,41.408 598.58,39.119C602.284,36.797 606.391,35.636 610.9,35.636C616.376,35.636 621.062,37.426 624.959,41.005L624.959,16ZM606.31,69.879C608.371,71.943 610.964,72.975 614.089,72.975C617.213,72.975 619.806,71.943 621.867,69.879C623.929,67.816 624.959,65.22 624.959,62.093C624.959,58.965 623.929,56.369 621.867,54.306C619.806,52.21 617.213,51.162 614.089,51.162C610.964,51.162 608.371,52.21 606.31,54.306C604.281,56.369 603.266,58.965 603.266,62.093C603.266,65.22 604.281,67.816 606.31,69.879Z" style="fill:white;fill-rule:nonzero;"/>
    </g>
    <g transform="matrix(0.1312,0,0,0.1312,45.9008,-1.8896)">
        <rect x="238.924" y="113.408" width="6.04" height="68.341" style="fill:white;fill-rule:nonzero;"/>
    </g>
    <g transform="matrix(0.1312,0,0,0.1312,45.9008,-1.8896)">
        <path d="M286.949,130.046C293.295,130.046 298.4,131.981 302.265,135.85C306.162,139.687 308.111,144.782 308.111,151.134L308.111,181.749L302.41,181.749L302.41,152.826C302.41,147.635 300.832,143.476 297.675,140.348C294.551,137.188 290.412,135.608 285.258,135.608C279.911,135.608 275.595,137.204 272.31,140.396C269.025,143.589 267.382,147.796 267.382,153.02L267.382,181.749L261.632,181.749L261.632,131.255L267.382,131.255L267.382,140.735C269.282,137.317 271.907,134.689 275.257,132.851C278.639,130.981 282.537,130.046 286.949,130.046Z" style="fill:white;fill-rule:nonzero;"/>
    </g>
    <g transform="matrix(0.1312,0,0,0.1312,45.9008,-1.8896)">
        <path d="M339.129,182.958C335.039,182.958 331.286,182.233 327.872,180.782C324.458,179.331 321.575,177.38 319.224,174.93L322.509,170.77C324.442,172.93 326.825,174.623 329.66,175.849C332.526,177.074 335.651,177.686 339.033,177.686C343.059,177.686 346.36,176.864 348.937,175.22C351.546,173.543 352.851,171.334 352.851,168.594C352.851,167.594 352.69,166.691 352.367,165.885C352.045,165.079 351.53,164.37 350.821,163.757C350.113,163.112 349.388,162.564 348.647,162.113C347.939,161.661 346.956,161.226 345.7,160.807C344.476,160.388 343.413,160.049 342.511,159.791C341.609,159.533 340.402,159.227 338.888,158.872C337.47,158.518 336.375,158.243 335.602,158.05C334.861,157.824 333.831,157.502 332.51,157.083C331.222,156.663 330.191,156.277 329.418,155.922C328.677,155.535 327.791,155.067 326.761,154.519C325.73,153.939 324.909,153.326 324.297,152.681C323.717,152.004 323.137,151.263 322.557,150.457C321.978,149.618 321.559,148.683 321.301,147.651C321.043,146.587 320.915,145.443 320.915,144.217C320.915,141.251 321.768,138.688 323.475,136.527C325.215,134.335 327.453,132.706 330.191,131.642C332.961,130.578 336.037,130.046 339.419,130.046C346.602,130.046 352.529,132.384 357.199,137.059L353.962,141.315C352.223,139.445 350.097,137.978 347.584,136.914C345.104,135.818 342.415,135.27 339.516,135.27C335.908,135.27 332.897,136.06 330.481,137.64C328.065,139.187 326.857,141.251 326.857,143.83C326.857,145.023 327.131,146.104 327.679,147.071C328.226,148.038 328.87,148.828 329.611,149.441C330.384,150.054 331.479,150.65 332.897,151.23C334.346,151.779 335.602,152.198 336.665,152.488C337.728,152.778 339.21,153.149 341.11,153.6C342.334,153.891 343.284,154.132 343.961,154.326C344.637,154.487 345.555,154.745 346.715,155.1C347.874,155.454 348.792,155.777 349.469,156.067C350.145,156.325 350.95,156.696 351.884,157.179C352.851,157.631 353.624,158.098 354.203,158.582C354.783,159.066 355.395,159.646 356.039,160.323C356.716,160.968 357.215,161.661 357.537,162.403C357.891,163.144 358.181,163.999 358.407,164.966C358.665,165.901 358.793,166.901 358.793,167.965C358.793,172.576 356.941,176.235 353.237,178.944C349.533,181.62 344.83,182.958 339.129,182.958Z" style="fill:white;fill-rule:nonzero;"/>
    </g>
    <g transform="matrix(0.1312,0,0,0.1312,45.9008,-1.8896)">
        <path d="M373.674,119.357C372.515,119.357 371.532,118.954 370.727,118.148C369.922,117.342 369.519,116.359 369.519,115.198C369.519,114.069 369.922,113.118 370.727,112.344C371.565,111.538 372.547,111.135 373.674,111.135C374.866,111.135 375.865,111.538 376.67,112.344C377.507,113.118 377.926,114.069 377.926,115.198C377.926,116.391 377.507,117.391 376.67,118.197C375.865,118.971 374.866,119.357 373.674,119.357ZM370.824,181.749L370.824,131.255L376.573,131.255L376.573,181.749L370.824,181.749Z" style="fill:white;fill-rule:nonzero;"/>
    </g>
    <g transform="matrix(0.1312,0,0,0.1312,45.9008,-1.8896)">
        <path d="M424.018,183.926C428.624,183.926 432.393,185.054 435.324,187.311C438.255,189.601 439.866,192.696 440.155,196.597L434.213,198C434.148,195.485 433.101,193.454 431.072,191.906C429.043,190.358 426.37,189.584 423.052,189.584L403.146,189.584C399.249,189.584 396.092,188.553 393.677,186.489C391.293,184.458 390.101,181.781 390.101,178.46C390.101,176.235 390.633,174.172 391.696,172.269C392.759,170.335 394.208,168.868 396.044,167.868C391.341,163.58 388.99,158.243 388.99,151.859C388.99,145.668 391.148,140.493 395.464,136.334C399.78,132.142 405.176,130.046 411.65,130.046C416.61,130.046 421.007,131.336 424.84,133.915C425.194,131.272 426.305,129.176 428.173,127.628C430.074,126.08 432.49,125.306 435.421,125.306L439.189,125.306L439.189,130.627L435.71,130.627C433.681,130.627 432.039,131.223 430.782,132.416C429.526,133.609 428.898,135.189 428.898,137.156L428.898,137.495C432.441,141.461 434.213,146.249 434.213,151.859C434.213,158.05 432.055,163.209 427.739,167.336C423.455,171.463 418.092,173.527 411.65,173.527C407.14,173.527 403.146,172.511 399.668,170.48C398.444,171.157 397.494,172.092 396.817,173.285C396.173,174.478 395.851,175.752 395.851,177.106C395.851,179.17 396.608,180.814 398.122,182.039C399.668,183.297 401.681,183.926 404.161,183.926L424.018,183.926ZM394.933,151.859C394.933,156.47 396.527,160.323 399.716,163.419C402.905,166.514 406.883,168.062 411.65,168.062C416.385,168.062 420.33,166.514 423.487,163.419C426.676,160.323 428.27,156.47 428.27,151.859C428.27,147.184 426.692,143.298 423.535,140.203C420.379,137.075 416.417,135.512 411.65,135.512C406.85,135.512 402.856,137.075 399.668,140.203C396.511,143.298 394.933,147.184 394.933,151.859Z" style="fill:white;fill-rule:nonzero;"/>
    </g>
    <g transform="matrix(0.1312,0,0,0.1312,45.9008,-1.8896)">
        <path d="M473.058,130.046C479.403,130.046 484.508,131.981 488.374,135.85C492.271,139.687 494.22,144.782 494.22,151.134L494.22,181.749L488.519,181.749L488.519,152.826C488.519,147.635 486.94,143.476 483.784,140.348C480.659,137.188 476.52,135.608 471.367,135.608C466.02,135.608 461.704,137.204 458.418,140.396C455.133,143.589 453.49,147.796 453.49,153.02L453.49,181.749L447.741,181.749L447.741,110.41L453.49,110.41L453.49,140.929C455.391,137.446 458.016,134.77 461.366,132.9C464.748,130.997 468.645,130.046 473.058,130.046Z" style="fill:white;fill-rule:nonzero;"/>
    </g>
    <g transform="matrix(0.1312,0,0,0.1312,45.9008,-1.8896)">
        <path d="M533.983,136.479L517.894,136.479L517.894,168.787C517.894,174.527 520.857,177.396 526.784,177.396C529.232,177.396 531.631,176.767 533.983,175.51L533.983,180.975C531.503,182.297 528.733,182.958 525.673,182.958C521.292,182.958 517.942,181.846 515.623,179.621C513.304,177.364 512.144,174.043 512.144,169.658L512.144,136.479L502.337,136.479L502.337,131.255L512.144,131.255L512.144,117.181L517.894,117.181L517.894,131.255L533.983,131.255L533.983,136.479Z" style="fill:white;fill-rule:nonzero;"/>
    </g>
    <g transform="matrix(0.1312,0,0,0.1312,45.9008,-1.8896)">
        <path d="M560.121,182.958C556.03,182.958 552.278,182.233 548.864,180.782C545.449,179.331 542.567,177.38 540.215,174.93L543.501,170.77C545.433,172.93 547.817,174.623 550.651,175.849C553.518,177.074 556.642,177.686 560.024,177.686C564.051,177.686 567.352,176.864 569.929,175.22C572.538,173.543 573.842,171.334 573.842,168.594C573.842,167.594 573.681,166.691 573.359,165.885C573.037,165.079 572.522,164.37 571.813,163.757C571.105,163.112 570.38,162.564 569.639,162.113C568.93,161.661 567.948,161.226 566.692,160.807C565.468,160.388 564.405,160.049 563.503,159.791C562.601,159.533 561.393,159.227 559.879,158.872C558.462,158.518 557.367,158.243 556.594,158.05C555.853,157.824 554.823,157.502 553.502,157.083C552.214,156.663 551.183,156.277 550.41,155.922C549.669,155.535 548.783,155.067 547.752,154.519C546.722,153.939 545.9,153.326 545.288,152.681C544.709,152.004 544.129,151.263 543.549,150.457C542.969,149.618 542.551,148.683 542.293,147.651C542.035,146.587 541.906,145.443 541.906,144.217C541.906,141.251 542.76,138.688 544.467,136.527C546.206,134.335 548.445,132.706 551.183,131.642C553.953,130.578 557.029,130.046 560.411,130.046C567.594,130.046 573.52,132.384 578.191,137.059L574.954,141.315C573.214,139.445 571.089,137.978 568.576,136.914C566.096,135.818 563.406,135.27 560.508,135.27C556.9,135.27 553.888,136.06 551.473,137.64C549.057,139.187 547.849,141.251 547.849,143.83C547.849,145.023 548.123,146.104 548.67,147.071C549.218,148.038 549.862,148.828 550.603,149.441C551.376,150.054 552.471,150.65 553.888,151.23C555.338,151.779 556.594,152.198 557.657,152.488C558.72,152.778 560.202,153.149 562.102,153.6C563.326,153.891 564.276,154.132 564.953,154.326C565.629,154.487 566.547,154.745 567.706,155.1C568.866,155.454 569.784,155.777 570.46,156.067C571.137,156.325 571.942,156.696 572.876,157.179C573.842,157.631 574.615,158.098 575.195,158.582C575.775,159.066 576.387,159.646 577.031,160.323C577.708,160.968 578.207,161.661 578.529,162.403C578.883,163.144 579.173,163.999 579.399,164.966C579.656,165.901 579.785,166.901 579.785,167.965C579.785,172.576 577.933,176.235 574.229,178.944C570.525,181.62 565.822,182.958 560.121,182.958Z" style="fill:white;fill-rule:nonzero;"/>
    </g>
    <g transform="matrix(0.1312,0,0,0.1312,45.9008,-1.8896)">
        <path d="M53.578,28.536C54.345,26.46 57.278,26.46 58.045,28.536L65.724,49.31C65.965,49.962 66.479,50.477 67.131,50.718L87.883,58.405C89.957,59.173 89.957,62.109 87.883,62.878L67.131,70.565C66.479,70.806 65.965,71.321 65.724,71.973L58.045,92.747C57.278,94.823 54.345,94.823 53.578,92.747L45.899,71.973C45.657,71.321 45.143,70.806 44.492,70.565L23.739,62.878C21.666,62.109 21.666,59.173 23.739,58.405L44.492,50.718C45.143,50.477 45.657,49.962 45.899,49.31L53.578,28.536Z" style="fill:white;fill-rule:nonzero;"/>
    </g>
</svg>
